<svg width="1400" height="820" viewBox="0 0 1400 820" fill="none" xmlns="http://www.w3.org/2000/svg">
  <rect width="1400" height="820" rx="40" fill="#F6F7F2"/>
  <rect x="36" y="36" width="1328" height="748" rx="32" fill="#FFFDF7" stroke="#D7DDD1"/>
  <text x="88" y="118" fill="#10213A" font-family="Avenir Next, Segoe UI, Arial, sans-serif" font-size="38" font-weight="700">Robot-frame alignment from HLOC to executable robot coordinates</text>
  <text x="88" y="164" fill="#5B667A" font-family="Avenir Next, Segoe UI, Arial, sans-serif" font-size="22">Exact metrics from <tspan font-weight="700">data/flowers_take7_robotinit_v2/alignment.json</tspan>. Lower is better for every value.</text>

  <rect x="88" y="220" width="586" height="494" rx="28" fill="#FBFCF8" stroke="#E2E8DD"/>
  <text x="128" y="282" fill="#10213A" font-family="Avenir Next, Segoe UI, Arial, sans-serif" font-size="28" font-weight="700">Translation error (meters)</text>
  <text x="128" y="320" fill="#5B667A" font-family="Avenir Next, Segoe UI, Arial, sans-serif" font-size="18">Scene alignment preserved camera centers with millimeter-scale error.</text>

  <line x1="128" y1="560" x2="610" y2="560" stroke="#D6DCDD" stroke-width="2"/>
  <line x1="128" y1="500" x2="610" y2="500" stroke="#EEF1EB" stroke-width="2"/>
  <line x1="128" y1="440" x2="610" y2="440" stroke="#EEF1EB" stroke-width="2"/>
  <line x1="128" y1="380" x2="610" y2="380" stroke="#EEF1EB" stroke-width="2"/>
  <text x="128" y="600" fill="#7A8393" font-family="Avenir Next, Segoe UI, Arial, sans-serif" font-size="16">0.000 m</text>
  <text x="520" y="600" fill="#7A8393" font-family="Avenir Next, Segoe UI, Arial, sans-serif" font-size="16">0.006 m</text>

  <text x="128" y="392" fill="#10213A" font-family="Avenir Next, Segoe UI, Arial, sans-serif" font-size="20" font-weight="600">Camera center RMSE</text>
  <rect x="128" y="412" width="149.05" height="28" rx="14" fill="#1F5BFF"/>
  <text x="288" y="433" fill="#1F5BFF" font-family="Avenir Next, Segoe UI, Arial, sans-serif" font-size="18" font-weight="700">0.00186 m</text>

  <text x="128" y="512" fill="#10213A" font-family="Avenir Next, Segoe UI, Arial, sans-serif" font-size="20" font-weight="600">Camera center max error</text>
  <rect x="128" y="532" width="478.4" height="28" rx="14" fill="#0C8F67"/>
  <text x="618" y="553" fill="#0C8F67" font-family="Avenir Next, Segoe UI, Arial, sans-serif" font-size="18" font-weight="700">0.00597 m</text>

  <rect x="726" y="220" width="586" height="494" rx="28" fill="#FBFCF8" stroke="#E2E8DD"/>
  <text x="766" y="282" fill="#10213A" font-family="Avenir Next, Segoe UI, Arial, sans-serif" font-size="28" font-weight="700">Rotation error (degrees)</text>
  <text x="766" y="320" fill="#5B667A" font-family="Avenir Next, Segoe UI, Arial, sans-serif" font-size="18">Orientation transfer stayed below one degree even at the worst camera.</text>

  <line x1="766" y1="560" x2="1248" y2="560" stroke="#D6DCDD" stroke-width="2"/>
  <line x1="766" y1="500" x2="1248" y2="500" stroke="#EEF1EB" stroke-width="2"/>
  <line x1="766" y1="440" x2="1248" y2="440" stroke="#EEF1EB" stroke-width="2"/>
  <line x1="766" y1="380" x2="1248" y2="380" stroke="#EEF1EB" stroke-width="2"/>
  <text x="766" y="600" fill="#7A8393" font-family="Avenir Next, Segoe UI, Arial, sans-serif" font-size="16">0.00°</text>
  <text x="1180" y="600" fill="#7A8393" font-family="Avenir Next, Segoe UI, Arial, sans-serif" font-size="16">1.00°</text>

  <text x="766" y="392" fill="#10213A" font-family="Avenir Next, Segoe UI, Arial, sans-serif" font-size="20" font-weight="600">Rotation mean error</text>
  <rect x="766" y="412" width="269.53" height="28" rx="14" fill="#F08C24"/>
  <text x="1048" y="433" fill="#F08C24" font-family="Avenir Next, Segoe UI, Arial, sans-serif" font-size="18" font-weight="700">0.5615°</text>

  <text x="766" y="512" fill="#10213A" font-family="Avenir Next, Segoe UI, Arial, sans-serif" font-size="20" font-weight="600">Rotation max error</text>
  <rect x="766" y="532" width="473.45" height="28" rx="14" fill="#BA4D38"/>
  <text x="1252" y="553" fill="#BA4D38" font-family="Avenir Next, Segoe UI, Arial, sans-serif" font-size="18" font-weight="700">0.9864°</text>

  <rect x="88" y="736" width="1224" height="1" fill="#E2E8DD"/>
  <text x="88" y="768" fill="#5B667A" font-family="Avenir Next, Segoe UI, Arial, sans-serif" font-size="18">Takeaway: the robot-frame alignment is strong enough to trust downstream grasp generation on the transferred Gaussian scene.</text>
</svg>
